<?xml version="1.0" standalone="no"?>
<!DOCTYPE svg PUBLIC "-//W3C//DTD SVG 20010904//EN"
 "http://www.w3.org/TR/2001/REC-SVG-20010904/DTD/svg10.dtd">
<svg version="1.0" xmlns="http://www.w3.org/2000/svg"
 width="256.000000pt" height="256.000000pt" viewBox="0 0 256.000000 256.000000"
 preserveAspectRatio="xMidYMid meet">

<g transform="translate(0.000000,256.000000) scale(0.100000,-0.100000)"
fill="#000000" stroke="none">
<path d="M1765 2395 c-41 -40 -30 -92 25 -115 25 -10 34 -10 55 4 38 25 49 52
34 87 -22 54 -74 65 -114 24z"/>
<path d="M765 2104 c-253 -146 -466 -273 -472 -282 -19 -23 -19 -1071 0 -1094
6 -9 220 -136 475 -283 413 -238 466 -266 487 -257 33 15 874 501 908 524 l27
19 0 543 c0 473 -2 545 -15 556 -26 21 -929 540 -940 540 -5 0 -217 -120 -470
-266z m784 -21 c168 -97 358 -206 421 -243 l115 -66 0 -499 0 -498 -424 -245
c-415 -240 -424 -244 -450 -230 -14 9 -207 120 -428 248 l-403 232 0 493 0
493 233 135 c127 74 318 184 422 245 105 61 194 111 199 111 5 1 147 -79 315
-176z"/>
<path d="M690 1820 c-18 -18 -20 -33 -20 -148 0 -179 -7 -172 174 -172 97 0
146 4 154 12 8 8 12 58 12 160 0 135 -2 148 -19 158 -11 5 -78 10 -150 10
-118 0 -133 -2 -151 -20z m220 -150 l0 -70 -70 0 -70 0 0 70 0 70 70 0 70 0 0
-70z"/>
<path d="M1077 1822 c-24 -27 -25 -283 -1 -306 13 -13 42 -16 158 -16 97 0
146 4 154 12 8 8 12 57 12 154 0 116 -3 145 -16 158 -12 13 -41 16 -153 16
-121 0 -140 -2 -154 -18z m223 -152 l0 -70 -70 0 -70 0 0 62 c0 61 10 78 12
19 1 -36 8 -39 26 -10 11 18 11 23 -5 35 -16 12 -12 13 34 14 28 0 55 5 58 10
12 20 15 9 15 -60z"/>
<path d="M1467 1822 c-14 -15 -17 -42 -17 -158 0 -96 4 -144 12 -152 8 -8 58
-12 160 -12 135 0 148 2 158 19 5 11 10 80 10 154 0 174 8 167 -172 167 -118
0 -137 -2 -151 -18z m223 -152 l0 -70 -70 0 -70 0 0 70 0 70 70 0 70 0 0 -70z"/>
<path d="M686 1428 c-13 -17 -16 -51 -16 -148 0 -176 -6 -170 166 -170 75 0
144 5 155 10 17 10 19 23 19 158 0 102 -4 152 -12 160 -8 8 -57 12 -154 12
-136 0 -144 -1 -158 -22z m232 -148 l0 -70 -74 0 -74 0 0 70 0 70 74 0 74 0 0
-70z"/>
<path d="M1077 1432 c-24 -27 -25 -283 -1 -306 12 -13 41 -16 150 -16 75 0
144 5 155 10 17 10 19 23 19 155 0 117 -3 146 -16 159 -12 13 -41 16 -153 16
-121 0 -140 -2 -154 -18z m223 -152 l0 -70 -70 0 -70 0 0 70 0 70 70 0 70 0 0
-70z"/>
<path d="M1466 1434 c-23 -23 -23 -285 0 -308 23 -23 285 -23 308 0 13 12 16
41 16 154 0 113 -3 142 -16 154 -23 23 -285 23 -308 0z m222 -154 l3 -70 -70
0 c-91 0 -94 19 -3 22 l67 2 -67 3 -68 4 0 54 0 55 68 0 68 0 2 -70z"/>
<path d="M1565 1330 c3 -5 28 -10 56 -10 27 0 49 5 49 10 0 6 -25 10 -56 10
-34 0 -53 -4 -49 -10z"/>
<path d="M686 1038 c-13 -18 -16 -51 -16 -150 0 -172 -4 -168 171 -168 72 0
139 5 150 10 17 10 19 23 19 158 0 102 -4 152 -12 160 -8 8 -57 12 -154 12
-136 0 -144 -1 -158 -22z m224 -148 l0 -70 -70 0 -70 0 0 70 0 70 70 0 70 0 0
-70z"/>
<path d="M1076 1044 c-13 -12 -16 -41 -16 -153 0 -179 -8 -171 173 -171 110 0
139 3 151 16 13 13 16 42 16 158 0 97 -4 146 -12 154 -8 8 -57 12 -154 12
-116 0 -145 -3 -158 -16z m224 -154 l0 -70 -70 0 -70 0 0 70 0 70 70 0 70 0 0
-70z"/>
<path d="M1462 1048 c-8 -8 -12 -57 -12 -153 0 -183 -8 -175 172 -175 175 0
168 -7 168 169 0 73 -5 141 -10 152 -10 17 -23 19 -158 19 -102 0 -152 -4
-160 -12z m228 -158 l0 -70 -70 0 -70 0 0 70 0 70 70 0 70 0 0 -70z"/>
<path d="M260 2300 c-43 -43 -11 -120 50 -120 38 0 70 32 70 70 0 38 -32 70
-70 70 -17 0 -39 -9 -50 -20z"/>
<path d="M685 2296 c-22 -33 -5 -66 33 -66 33 0 52 16 52 45 0 48 -58 62 -85
21z"/>
<path d="M2142 2258 c-29 -29 -7 -78 34 -78 42 0 63 59 30 82 -17 12 -51 9
-64 -4z"/>
<path d="M2253 619 c-26 -9 -32 -56 -11 -77 16 -16 53 -15 68 2 29 36 -13 92
-57 75z"/>
<path d="M260 410 c-43 -43 -11 -120 50 -120 17 0 39 9 50 20 11 11 20 33 20
50 0 17 -9 39 -20 50 -11 11 -33 20 -50 20 -17 0 -39 -9 -50 -20z"/>
<path d="M1908 279 c-21 -12 -24 -59 -6 -77 15 -15 51 -15 66 0 19 19 14 55
-10 72 -26 19 -27 19 -50 5z"/>
<path d="M740 220 c-25 -25 -25 -42 -2 -63 24 -22 45 -21 65 1 22 24 21 45 -1
65 -24 22 -38 21 -62 -3z"/>
</g>
</svg>
